<?xml version="1.0" standalone="no"?>
<!DOCTYPE svg PUBLIC "-//W3C//DTD SVG 20010904//EN"
 "http://www.w3.org/TR/2001/REC-SVG-20010904/DTD/svg10.dtd">
<svg version="1.0" xmlns="http://www.w3.org/2000/svg"
 width="1600.000000pt" height="1600.000000pt" viewBox="0 0 1600.000000 1600.000000"
 preserveAspectRatio="xMidYMid meet">
<metadata>
Created by potrace 1.14, written by Peter Selinger 2001-2017
</metadata>
<g transform="translate(0.000000,1600.000000) scale(0.100000,-0.100000)"
fill="#000000" stroke="none">
<path d="M7798 15996 c-1 -2 -50 -6 -108 -10 -106 -7 -131 -10 -230 -22 -30
-4 -67 -8 -82 -10 -16 -1 -29 -3 -30 -4 -2 -2 -19 -4 -38 -5 -19 -2 -35 -4
-35 -5 0 -1 -9 -3 -20 -4 -26 -4 -83 -14 -115 -21 -14 -3 -41 -8 -60 -11 -19
-3 -71 -15 -115 -25 -44 -11 -88 -22 -98 -24 -10 -2 -27 -7 -37 -10 -24 -8
-60 -16 -86 -20 -12 -2 -31 -8 -43 -14 -11 -7 -21 -10 -21 -7 0 3 -17 -2 -37
-10 -20 -9 -45 -17 -55 -19 -9 -2 -70 -23 -135 -46 -105 -37 -142 -51 -233
-91 -36 -15 -62 -26 -90 -38 -14 -5 -32 -14 -40 -19 -8 -4 -69 -35 -135 -69
-163 -81 -189 -96 -193 -104 -2 -5 -8 -8 -13 -8 -15 0 -274 -165 -334 -212 -5
-5 -53 -41 -105 -80 -52 -40 -100 -77 -106 -83 -6 -5 -36 -30 -65 -55 -124
-104 -318 -297 -421 -420 -21 -25 -47 -56 -59 -70 -12 -14 -47 -59 -78 -100
-31 -41 -64 -84 -74 -94 -9 -11 -17 -23 -17 -27 0 -4 -6 -14 -13 -21 -19 -20
-108 -155 -123 -188 -4 -8 -10 -17 -14 -20 -24 -19 -260 -477 -260 -504 0 -3
-11 -30 -25 -60 -14 -30 -25 -61 -25 -69 0 -7 -3 -17 -7 -20 -11 -12 -111
-314 -129 -392 -7 -28 -13 -56 -18 -83 -3 -12 -7 -26 -10 -30 -3 -5 -8 -31
-12 -58 -3 -27 -8 -52 -10 -56 -3 -4 -7 -22 -9 -40 -3 -18 -7 -44 -10 -58 -8
-38 -13 -71 -20 -120 -3 -25 -8 -62 -11 -83 -7 -42 -10 -81 -21 -232 -13 -181
-6 -646 11 -745 2 -14 7 -52 10 -85 3 -33 8 -69 10 -80 2 -11 7 -42 10 -70 12
-81 17 -116 22 -139 3 -11 7 -32 10 -46 2 -14 9 -45 14 -70 6 -25 12 -54 15
-65 2 -11 9 -38 15 -60 6 -22 13 -49 15 -60 9 -42 53 -182 69 -218 8 -21 15
-41 14 -45 0 -4 7 -25 17 -47 9 -22 18 -44 19 -50 2 -5 10 -28 20 -50 10 -22
19 -44 20 -50 2 -11 149 -306 169 -340 7 -11 36 -58 65 -105 29 -47 59 -94 65
-105 7 -11 14 -22 18 -25 3 -3 21 -27 40 -55 18 -27 39 -56 46 -65 192 -250
417 -479 674 -686 52 -42 104 -84 117 -95 12 -10 27 -19 32 -19 6 0 10 -4 10
-10 0 -5 7 -10 15 -10 8 0 15 -3 15 -8 0 -4 18 -18 40 -32 22 -14 40 -28 40
-32 0 -5 4 -8 10 -8 5 0 37 -20 72 -44 68 -47 336 -216 344 -216 2 0 21 -10
42 -23 81 -51 298 -164 316 -165 5 0 12 -4 15 -9 10 -14 377 -188 486 -231 22
-8 45 -19 51 -24 7 -5 20 -11 30 -13 11 -2 57 -20 104 -40 47 -20 141 -58 210
-84 69 -27 134 -52 145 -56 11 -4 25 -9 30 -11 6 -1 42 -15 80 -29 39 -15 104
-38 145 -52 41 -14 87 -32 103 -39 15 -8 27 -12 27 -10 0 3 19 -2 43 -10 23
-9 49 -17 57 -19 8 -2 107 -36 220 -75 113 -39 227 -78 254 -86 27 -9 113 -40
190 -70 78 -31 148 -57 156 -59 17 -5 129 -49 175 -70 17 -7 54 -23 84 -35 30
-11 73 -29 95 -39 23 -10 75 -33 116 -51 41 -18 138 -63 215 -100 77 -38 145
-69 150 -70 6 -1 21 -10 35 -19 14 -9 52 -30 85 -46 33 -17 62 -33 63 -37 2
-5 8 -8 14 -8 5 0 48 -22 95 -50 47 -27 89 -50 94 -50 5 0 9 -4 9 -10 0 -5 5
-10 11 -10 6 0 31 -13 56 -30 24 -16 46 -30 48 -30 10 0 334 -226 390 -272 5
-5 20 -16 31 -26 129 -104 188 -157 288 -258 88 -88 205 -214 199 -214 -2 0 8
-12 22 -27 14 -15 42 -53 62 -83 21 -30 43 -59 50 -63 7 -4 13 -15 13 -23 0
-8 7 -17 15 -20 8 -4 15 -10 15 -16 0 -5 16 -34 35 -64 19 -30 35 -59 35 -64
0 -6 5 -10 11 -10 5 0 8 -4 5 -9 -4 -5 -3 -11 2 -13 8 -3 100 -185 102 -203 1
-5 8 -21 15 -35 19 -36 71 -180 91 -250 48 -176 79 -349 90 -500 9 -126 10
-335 2 -352 -6 -12 -5 -18 2 -18 6 0 8 -5 5 -11 -4 -6 -9 -36 -11 -67 -4 -70
-13 -152 -19 -172 -2 -8 -7 -35 -10 -60 -13 -95 -86 -363 -106 -386 -5 -6 -7
-13 -4 -16 3 -3 -1 -18 -10 -34 -8 -16 -15 -32 -15 -36 0 -7 -20 -52 -78 -178
-9 -19 -18 -37 -21 -40 -4 -3 -16 -25 -29 -50 -36 -72 -176 -287 -197 -305 -7
-5 -16 -17 -21 -26 -30 -55 -336 -373 -419 -434 -22 -16 -42 -33 -45 -36 -31
-37 -341 -246 -475 -320 -102 -56 -319 -162 -332 -162 -7 0 -13 -4 -13 -9 0
-4 -6 -8 -13 -8 -7 0 -32 -9 -55 -20 -22 -11 -48 -20 -57 -20 -8 0 -15 -4 -15
-8 0 -5 -6 -9 -12 -9 -7 -1 -58 -18 -113 -38 -55 -20 -104 -38 -110 -39 -5 -2
-43 -13 -84 -25 -41 -13 -81 -24 -90 -27 -9 -2 -61 -15 -116 -29 -103 -27
-147 -36 -177 -38 -10 -1 -18 -4 -18 -7 0 -3 -8 -6 -17 -6 -10 -1 -36 -4 -58
-9 -22 -4 -53 -9 -70 -10 -16 -2 -30 -4 -30 -5 0 -2 -22 -6 -89 -14 -22 -3
-55 -8 -75 -11 -20 -3 -63 -8 -96 -11 -33 -3 -91 -7 -130 -11 -100 -8 -517 -8
-600 1 -38 4 -92 9 -120 11 -27 2 -61 6 -75 9 -14 3 -44 8 -65 10 -22 3 -53 8
-70 11 -16 3 -41 7 -55 10 -28 4 -43 7 -145 31 -120 27 -138 31 -230 59 -49
15 -94 28 -100 28 -5 1 -12 4 -15 7 -3 3 -39 16 -80 29 -41 14 -82 28 -90 33
-37 18 -240 99 -246 98 -4 -1 -10 2 -13 7 -3 5 -69 40 -146 78 -77 39 -141 73
-143 77 -2 5 -7 8 -12 8 -5 0 -43 20 -84 45 -42 25 -79 45 -82 45 -3 0 -10 5
-17 10 -7 6 -68 48 -137 93 -151 99 -194 130 -198 140 -2 4 -10 7 -17 7 -7 0
-15 3 -17 8 -1 4 -39 34 -83 67 -44 33 -85 64 -92 70 -6 5 -26 21 -45 35 -18
14 -43 35 -56 48 -13 12 -26 22 -30 22 -4 0 -23 15 -42 33 -19 18 -51 45 -70
61 -19 16 -65 55 -102 88 -37 33 -78 69 -90 80 -54 46 -253 234 -397 376
l-156 153 -18 -23 c-34 -42 -82 -99 -102 -122 -12 -12 -39 -44 -60 -71 -22
-27 -53 -63 -70 -81 -16 -17 -42 -47 -57 -65 -14 -19 -36 -45 -48 -59 -12 -14
-39 -45 -60 -70 -21 -25 -48 -56 -60 -70 -12 -14 -40 -47 -63 -74 -23 -28 -51
-60 -62 -72 -11 -12 -29 -33 -39 -46 -21 -25 -107 -126 -143 -168 -41 -47 -58
-68 -98 -116 -22 -27 -47 -55 -55 -64 -8 -8 -29 -33 -47 -55 l-31 -41 66 -74
c79 -87 365 -374 443 -443 30 -27 70 -63 89 -80 46 -42 202 -172 260 -217 18
-14 51 -40 73 -59 23 -18 71 -54 107 -79 36 -26 67 -49 70 -52 5 -6 108 -77
138 -95 9 -5 19 -12 22 -15 15 -15 71 -50 80 -50 5 0 10 -4 10 -9 0 -5 13 -14
30 -21 16 -7 30 -16 30 -21 0 -5 4 -9 9 -9 6 0 29 -12 53 -27 107 -69 320
-190 473 -268 126 -65 373 -181 405 -190 3 -1 23 -9 45 -19 39 -17 195 -79
205 -81 5 -2 53 -21 80 -32 8 -3 18 -7 23 -8 4 -2 8 -3 10 -5 1 -1 9 -3 17 -5
25 -5 214 -67 231 -75 15 -8 77 -26 124 -37 37 -8 50 -11 53 -13 1 -2 7 -4 12
-5 6 -1 11 -3 13 -5 1 -1 9 -3 17 -5 8 -1 71 -16 140 -33 111 -27 158 -38 182
-42 4 -1 34 -8 65 -15 32 -7 76 -16 98 -19 23 -4 52 -9 65 -12 44 -9 83 -16
175 -29 66 -10 112 -16 145 -19 19 -1 55 -6 80 -9 45 -7 90 -11 255 -24 182
-15 692 -7 850 13 22 3 69 7 105 9 36 2 65 5 65 6 0 0 11 2 25 3 23 3 118 15
165 22 11 1 38 5 60 8 66 9 99 15 125 20 13 3 42 8 64 12 22 3 44 8 47 10 4 2
27 6 50 9 24 3 80 15 124 26 44 10 90 21 103 24 13 2 32 7 42 10 23 7 59 16
85 20 11 2 21 4 23 5 1 2 7 4 12 5 6 1 12 4 15 5 3 1 10 4 15 5 6 1 11 3 13 5
1 1 10 3 20 5 24 4 306 95 337 108 14 6 27 11 30 11 13 3 78 29 102 42 16 9
28 13 28 10 0 -4 24 6 147 60 21 10 40 18 43 19 3 0 41 18 85 40 44 21 82 39
85 40 8 2 95 48 225 120 98 54 226 134 236 148 3 5 8 7 10 5 5 -3 239 161 298
209 88 72 171 142 211 178 80 71 283 278 345 350 33 39 63 72 68 73 4 2 7 10
7 18 0 8 4 14 8 14 11 0 196 247 247 329 6 9 22 35 38 58 15 23 27 46 27 52 0
6 4 11 10 11 5 0 12 11 16 25 3 14 10 25 14 25 4 0 13 12 19 28 6 15 15 34 20
42 40 64 70 120 63 120 -4 0 -2 4 3 8 8 6 46 76 50 92 0 3 13 28 28 57 15 29
27 59 27 68 0 8 4 15 10 15 5 0 9 3 8 7 0 5 2 17 7 28 4 11 23 56 41 100 18
44 48 130 68 190 20 61 39 117 43 125 3 8 7 22 9 32 2 9 17 65 33 125 16 60
32 122 35 138 2 17 5 30 6 30 2 0 5 16 14 60 3 17 8 41 11 55 10 47 18 100 30
190 4 30 9 58 11 62 3 4 7 38 10 75 2 37 7 79 9 92 13 71 19 247 19 496 0 305
-5 392 -30 595 -4 30 -8 69 -9 85 -2 17 -4 30 -5 30 -1 0 -3 11 -5 25 -5 51
-22 145 -25 145 -1 0 -3 11 -5 25 -1 14 -5 36 -8 50 -3 14 -10 45 -16 70 -5
25 -19 81 -30 125 -26 99 -26 100 -44 158 -8 26 -13 47 -10 47 3 0 1 6 -4 13
-6 6 -23 50 -38 97 -83 256 -266 620 -439 875 -22 33 -49 69 -58 79 -10 11
-18 23 -18 27 0 4 -6 14 -13 21 -7 7 -26 31 -42 53 -130 174 -329 390 -509
550 -43 39 -88 79 -100 90 -12 11 -44 38 -71 60 -28 22 -59 48 -70 57 -11 9
-65 50 -120 92 -55 41 -105 79 -110 83 -6 4 -57 39 -115 78 -58 38 -107 72
-110 75 -3 4 -12 9 -20 13 -8 4 -46 27 -85 51 -99 64 -173 106 -185 106 -5 0
-10 4 -10 9 0 5 -15 14 -32 22 -18 7 -35 15 -38 18 -6 8 -28 19 -147 82 -231
122 -463 232 -694 329 -68 29 -142 60 -164 70 -39 17 -75 32 -85 35 -3 1 -18
7 -33 13 -16 7 -31 12 -34 12 -3 0 -19 6 -36 14 -18 8 -68 27 -112 44 -44 16
-89 33 -100 37 -11 5 -22 9 -25 10 -3 1 -13 5 -22 8 -40 15 -54 20 -63 23 -5
1 -62 21 -125 44 -63 23 -119 43 -125 44 -5 1 -14 4 -20 7 -9 5 -29 12 -80 25
-13 3 -104 35 -130 45 -11 4 -76 26 -145 49 -69 22 -132 43 -140 47 -8 3 -19
7 -25 8 -27 7 -352 126 -367 135 -10 5 -27 10 -38 10 -11 0 -20 5 -20 11 0 5
-4 8 -9 4 -5 -3 -12 -1 -16 5 -4 6 -11 8 -16 5 -5 -4 -9 -1 -9 4 0 6 -8 11
-18 11 -10 0 -22 3 -26 7 -3 4 -12 8 -19 9 -11 2 -173 68 -244 100 -18 8 -48
20 -65 28 -18 8 -77 35 -132 60 -54 25 -104 46 -111 46 -7 0 -16 7 -19 16 -4
9 -9 14 -12 11 -19 -19 -693 368 -726 417 -5 7 -8 7 -8 1 0 -5 -5 -2 -11 8 -5
9 -16 17 -24 17 -7 0 -15 3 -17 8 -1 4 -32 29 -68 57 -36 27 -67 52 -70 55 -3
3 -29 25 -58 49 -69 57 -213 200 -278 276 -61 72 -174 224 -182 245 -3 8 -8
17 -11 20 -16 14 -149 274 -155 303 -4 15 -15 46 -27 72 -5 11 -11 30 -14 42
-2 12 -8 30 -13 40 -11 21 -54 201 -68 283 -7 47 -20 157 -29 250 -7 72 -8
340 -1 410 12 136 17 169 46 295 22 95 24 101 33 125 3 8 13 40 23 70 9 30 24
71 32 90 9 19 15 38 14 42 -2 10 146 297 162 314 9 8 16 19 16 24 0 5 16 29
35 54 19 25 32 46 28 46 -3 0 4 8 15 19 12 10 22 22 22 26 0 34 368 414 449
464 7 4 24 18 39 29 15 12 41 33 59 47 68 55 238 161 348 219 22 12 42 24 43
29 2 4 12 7 23 7 10 0 19 4 19 8 0 6 32 23 70 37 3 1 34 15 70 31 67 31 131
58 140 59 3 0 14 6 25 11 11 6 34 15 50 19 35 10 36 10 55 18 8 3 42 15 75 26
52 16 84 26 165 47 106 28 226 53 280 59 19 2 35 4 35 5 0 3 98 19 150 25 233
24 578 24 745 -2 19 -3 51 -7 70 -8 19 -2 35 -4 35 -6 0 -1 11 -3 25 -4 27 -2
117 -19 155 -29 6 -1 26 -6 45 -10 56 -12 223 -57 245 -66 11 -5 58 -20 105
-35 76 -24 105 -35 175 -66 24 -10 78 -32 85 -34 3 0 37 -16 75 -35 39 -18 72
-34 75 -35 6 -1 142 -73 185 -97 17 -9 46 -24 65 -33 19 -9 37 -19 40 -23 3
-4 21 -16 40 -26 71 -39 217 -134 375 -246 129 -91 137 -96 166 -122 10 -10
19 -15 19 -10 0 4 4 2 8 -4 4 -5 41 -36 82 -69 65 -51 223 -181 256 -210 6 -5
33 -28 59 -50 50 -42 58 -50 181 -161 114 -103 167 -151 187 -171 10 -10 21
-13 26 -7 5 5 37 43 71 84 34 41 82 98 105 125 24 28 89 104 145 170 56 66
114 134 128 151 15 17 45 53 67 79 22 27 49 58 60 70 11 12 36 41 55 66 19 24
46 56 60 71 14 14 35 39 47 55 12 15 35 43 52 62 17 19 31 39 31 43 0 5 5 6
10 3 6 -3 10 -1 10 4 0 6 11 24 24 39 13 15 47 54 75 86 l51 59 -92 91 c-51
50 -94 90 -96 90 -2 -1 -18 13 -36 30 -56 53 -190 173 -220 197 -16 12 -38 32
-50 43 -39 37 -89 79 -196 166 -58 47 -107 87 -110 90 -3 3 -39 31 -80 62 -41
31 -88 67 -104 81 -16 14 -41 31 -55 39 -14 7 -33 20 -42 28 -25 21 -38 31
-89 65 -25 17 -49 34 -55 38 -18 15 -204 135 -237 154 -18 10 -39 24 -46 31
-7 6 -20 12 -28 12 -8 0 -14 4 -14 9 0 5 -10 13 -22 17 -13 3 -30 12 -38 19
-40 33 -478 255 -505 255 -8 0 -15 5 -15 10 0 6 -8 10 -18 10 -10 0 -22 4 -28
8 -5 4 -36 18 -69 31 -33 12 -69 27 -80 32 -11 4 -47 18 -80 29 -33 12 -69 25
-80 30 -11 5 -38 14 -60 21 -22 6 -49 15 -60 20 -22 8 -64 22 -80 25 -5 1 -30
7 -55 15 -25 7 -49 14 -55 15 -64 18 -216 56 -235 58 -14 2 -45 9 -70 16 -25
7 -61 14 -80 16 -19 3 -44 7 -55 9 -54 11 -95 18 -182 30 -21 3 -51 7 -68 10
-16 2 -59 7 -95 10 -36 3 -81 8 -100 11 -19 4 -64 8 -100 10 -83 5 -687 13
-692 10z"/>
</g>
</svg>
