<svg width="10" height="11" viewBox="0 0 10 11" fill="none" xmlns="http://www.w3.org/2000/svg">
<path d="M5.24951 5.84229H3.86572L3.85303 5.02979H5.1416C5.31934 5.02555 5.48438 4.99382 5.63672 4.93457C5.79329 4.87533 5.91813 4.79069 6.01123 4.68066C6.10856 4.56641 6.15723 4.42676 6.15723 4.26172C6.15723 4.05013 6.12126 3.88298 6.04932 3.76025C5.97738 3.63753 5.85677 3.54867 5.6875 3.49365C5.52246 3.43864 5.29606 3.41113 5.0083 3.41113H4.14502V7.98779H3.25V2.60498H5.0083C5.42725 2.60498 5.78906 2.66423 6.09375 2.78271C6.39844 2.9012 6.6333 3.08105 6.79834 3.32227C6.96338 3.55924 7.0459 3.8597 7.0459 4.22363C7.0459 4.45215 6.993 4.65739 6.88721 4.83936C6.78141 5.02132 6.62695 5.1779 6.42383 5.30908C6.2207 5.44027 5.97314 5.54606 5.68115 5.62646C5.66846 5.62646 5.65365 5.64128 5.63672 5.6709C5.62402 5.69629 5.61133 5.70898 5.59863 5.70898C5.52669 5.7513 5.48014 5.78304 5.45898 5.8042C5.44206 5.82113 5.42301 5.83171 5.40186 5.83594C5.38493 5.84017 5.33415 5.84229 5.24951 5.84229ZM5.18604 5.84229L5.31299 5.271C5.96891 5.271 6.41536 5.41064 6.65234 5.68994C6.89355 5.96501 7.01416 6.31413 7.01416 6.7373V7.08008C7.01416 7.23665 7.02262 7.38688 7.03955 7.53076C7.05648 7.67041 7.08398 7.7889 7.12207 7.88623V7.98779H6.20166C6.15934 7.87777 6.13395 7.72119 6.12549 7.51807C6.12126 7.31494 6.11914 7.16683 6.11914 7.07373V6.74365C6.11914 6.43473 6.0472 6.20833 5.90332 6.06445C5.76367 5.91634 5.52458 5.84229 5.18604 5.84229ZM1.30762 5.37256C1.30762 5.93538 1.40495 6.46012 1.59961 6.94678C1.79427 7.43343 2.0651 7.85872 2.41211 8.22266C2.75911 8.58659 3.16113 8.87012 3.61816 9.07324C4.0752 9.27637 4.56396 9.37793 5.08447 9.37793C5.60498 9.37793 6.09163 9.27637 6.54443 9.07324C7.00146 8.87012 7.40137 8.58659 7.74414 8.22266C8.09115 7.85872 8.36198 7.43343 8.55664 6.94678C8.7513 6.46012 8.84863 5.93538 8.84863 5.37256C8.84863 4.8055 8.7513 4.28076 8.55664 3.79834C8.36198 3.31592 8.09115 2.89486 7.74414 2.53516C7.40137 2.17122 7.00146 1.88981 6.54443 1.69092C6.09163 1.48779 5.60498 1.38623 5.08447 1.38623C4.56396 1.38623 4.0752 1.48779 3.61816 1.69092C3.16113 1.88981 2.75911 2.17122 2.41211 2.53516C2.0651 2.89486 1.79427 3.31592 1.59961 3.79834C1.40495 4.28076 1.30762 4.8055 1.30762 5.37256ZM0.577637 5.37256C0.577637 4.69971 0.69401 4.07552 0.926758 3.5C1.15951 2.92448 1.48324 2.42301 1.89795 1.99561C2.31266 1.56396 2.79085 1.22965 3.33252 0.992676C3.87842 0.751465 4.4624 0.630859 5.08447 0.630859C5.70654 0.630859 6.28841 0.751465 6.83008 0.992676C7.37598 1.22965 7.85417 1.56396 8.26465 1.99561C8.67936 2.42301 9.00309 2.92448 9.23584 3.5C9.46859 4.07552 9.58496 4.69971 9.58496 5.37256C9.58496 6.04541 9.46859 6.6696 9.23584 7.24512C9.00309 7.82064 8.67936 8.32633 8.26465 8.76221C7.85417 9.19385 7.37598 9.53027 6.83008 9.77148C6.28841 10.0127 5.70654 10.1333 5.08447 10.1333C4.4624 10.1333 3.87842 10.0127 3.33252 9.77148C2.79085 9.53027 2.31266 9.19385 1.89795 8.76221C1.48324 8.32633 1.15951 7.82064 0.926758 7.24512C0.69401 6.6696 0.577637 6.04541 0.577637 5.37256Z" fill="#3F2AFF"/>
</svg>
